<svg width="36" height="36" viewBox="0 0 36 36" fill="none" xmlns="http://www.w3.org/2000/svg">
<path d="M36 18C36 27.9411 27.9411 36 18 36C8.05887 36 0 27.9411 0 18C0 8.05887 8.05887 0 18 0C27.9411 0 36 8.05887 36 18Z" fill="white"/>
<g clip-path="url(#clip0_485_457)">
<path d="M15.8024 8.00008C15.5753 7.99692 15.3564 8.08714 15.1947 8.25056C15.033 8.41397 14.942 8.63696 14.942 8.86964H9.86088C9.55478 8.86521 9.27006 9.02997 9.11574 9.30083C8.96142 9.5717 8.96142 9.90671 9.11574 10.1776C9.27006 10.4484 9.55478 10.6132 9.86088 10.6088H25.1391C25.4452 10.6132 25.7299 10.4484 25.8843 10.1776C26.0386 9.9067 26.0386 9.57169 25.8843 9.30083C25.7299 9.02996 25.4452 8.86521 25.1391 8.86964H20.058C20.058 8.63696 19.967 8.41397 19.8053 8.25056C19.6436 8.08714 19.4247 7.99692 19.1976 8.00008H15.8024ZM9.86088 12.3479V26.2609C9.86088 27.2217 10.6206 28 11.5585 28H23.4415C24.3794 28 25.1391 27.2217 25.1391 26.2609V12.3479H9.86088ZM14.9536 16.6957C15.1707 16.6957 15.3878 16.7805 15.5537 16.9505L17.5 18.9443L19.4463 16.9505C19.7781 16.6105 20.3146 16.6105 20.6465 16.9505C20.9784 17.2905 20.9784 17.8401 20.6465 18.1801L18.7002 20.1739L20.6465 22.1678C20.9784 22.5078 20.9784 23.0574 20.6465 23.3974C20.481 23.567 20.2637 23.6522 20.0464 23.6522C19.8291 23.6522 19.6118 23.567 19.4463 23.3974L17.5 21.4036L15.5537 23.3974C15.3882 23.567 15.1709 23.6522 14.9536 23.6522C14.7363 23.6522 14.519 23.567 14.3535 23.3974C14.0216 23.0574 14.0216 22.5078 14.3535 22.1678L16.2998 20.1739L14.3535 18.1801C14.0216 17.8401 14.0216 17.2905 14.3535 16.9505C14.5194 16.7805 14.7365 16.6957 14.9536 16.6957Z" fill="#C60909"/>
</g>
<defs>
<clipPath id="clip0_485_457">
<rect width="17" height="22" fill="white" transform="translate(9 7)"/>
</clipPath>
</defs>
</svg>
