<svg width="239" height="249" viewBox="0 0 239 249" fill="none" xmlns="http://www.w3.org/2000/svg">
<path d="M96.297 0.776855C43.3729 0.776855 0.185181 45.6257 0.185181 100.585C0.185181 155.545 43.3729 200.394 96.297 200.394C117.993 200.394 137.982 192.774 154.101 180.093L216.178 244.544C219.503 248.14 224.44 249.589 229.086 248.331C233.732 247.074 237.36 243.306 238.571 238.482C239.782 233.657 238.387 228.53 234.924 225.077L172.86 160.613C185.071 143.874 192.409 123.116 192.409 100.585C192.409 45.6257 149.221 0.776855 96.297 0.776855ZM96.297 28.3102C134.892 28.3102 165.895 60.5058 165.895 100.585C165.895 119.829 158.697 137.209 146.994 150.127C145.855 150.983 144.854 152.022 144.029 153.205C131.587 165.374 114.841 172.86 96.297 172.86C57.7019 172.86 26.6988 140.665 26.6988 100.585C26.6988 60.5059 57.7019 28.3102 96.297 28.3102Z" fill="white"/>
</svg>
