<svg width="58" height="58" viewBox="0 0 58 58" fill="none" xmlns="http://www.w3.org/2000/svg">
<circle cx="29" cy="29" r="29" fill="#004AFF"/>
<path d="M10.3838 30.6235L11.5557 30.5503C11.5898 31.3901 11.8657 32.0347 12.3833 32.4839C12.9058 32.9331 13.5796 33.1577 14.4048 33.1577C15.1177 33.1577 15.6768 33.0137 16.082 32.7256C16.4922 32.4375 16.6973 32.0371 16.6973 31.5244C16.6973 31.0947 16.5557 30.7627 16.2725 30.5283C15.9893 30.2939 15.5327 30.1157 14.9028 29.9937L13.0278 29.6348C11.4556 29.3271 10.6694 28.4971 10.6694 27.1445C10.6694 26.3145 10.9746 25.6455 11.585 25.1377C12.1953 24.625 13.0156 24.3687 14.0459 24.3687C15.2275 24.3687 16.1455 24.6665 16.7998 25.2622C17.4541 25.8579 17.7861 26.6904 17.7959 27.7598L16.6094 27.8184C16.5898 27.042 16.3555 26.4414 15.9062 26.0166C15.457 25.5869 14.8418 25.3721 14.0605 25.3721C13.3867 25.3721 12.8618 25.5234 12.4858 25.8262C12.1147 26.1289 11.9292 26.5439 11.9292 27.0713C11.9292 27.5107 12.0635 27.8306 12.332 28.0308C12.6055 28.231 13.04 28.3896 13.6357 28.5068L15.3496 28.8364C16.2334 29.0024 16.8853 29.293 17.3052 29.708C17.73 30.1182 17.9424 30.6943 17.9424 31.4365C17.9424 32.291 17.6128 32.9624 16.9536 33.4507C16.2993 33.939 15.4497 34.1831 14.4048 34.1831C13.2134 34.1831 12.2441 33.8682 11.4971 33.2383C10.7549 32.6084 10.3838 31.7368 10.3838 30.6235ZM26.1089 32.9233V34H19.3779V24.5518H25.9771V25.6284H20.6377V28.6021H24.8857V29.6641H20.6377V32.9233H26.1089ZM28.9434 24.5518L34.1216 31.7808V24.5518H35.3374V34H34.2974L28.8115 26.4121V34H27.5957V24.5518H28.9434ZM40.2812 24.5518H41.7021L45.6353 34H44.2583L43.1157 31.2241H38.8091L37.7031 34H36.4287L40.2812 24.5518ZM40.9111 25.9873L39.2192 30.1914H42.6982L40.9697 25.9873H40.9111ZM46.7266 24.5518H48.0303V34H46.7266V24.5518Z" fill="white"/>
</svg>
