<svg width="97" height="97" viewBox="0 0 97 97" fill="none" xmlns="http://www.w3.org/2000/svg">
<path d="M86.2222 0H10.7778C4.82306 0 0 4.82306 0 10.7778V86.2222C0 92.1769 4.82306 97 10.7778 97H86.2222C92.1769 97 97 92.1769 97 86.2222V10.7778C97 4.82306 92.1769 0 86.2222 0ZM90.0322 52.3099L72.2488 70.0933C71.198 71.1441 69.8184 71.6722 68.4389 71.6722C67.0593 71.6722 65.6798 71.1441 64.6289 70.0933C62.5219 67.9862 62.5219 64.5804 64.6289 62.4734L73.2134 53.8889H32.3333C29.3533 53.8889 26.9444 51.4801 26.9444 48.5C26.9444 45.5199 29.3533 43.1111 32.3333 43.1111H73.2134L64.6289 34.5266C62.5219 32.4196 62.5219 29.0138 64.6289 26.9067C66.736 24.7997 70.1418 24.7997 72.2488 26.9067L90.0322 44.6901C92.1392 46.7971 92.1392 50.2029 90.0322 52.3099Z" fill="white"/>
</svg>
